<svg width="75" height="75" viewBox="0 0 75 75" fill="none" xmlns="http://www.w3.org/2000/svg">
<path d="M37.5 75C58.2107 75 75 58.2107 75 37.5C75 16.7893 58.2107 0 37.5 0C16.7893 0 0 16.7893 0 37.5C0 58.2107 16.7893 75 37.5 75Z" fill="#DBDBDB"/>
<path d="M38.4613 16.7935C38.5067 17.9209 38.5518 19.0484 38.5973 20.1758H36.403L36.5388 16.7935H31.199C27.6207 30.3829 24.0419 43.9721 20.4638 57.5618H34.9009L35.0369 54.1794H39.9634C40.009 55.3068 40.0541 56.4342 40.0993 57.5618H54.5364C50.9582 43.9723 47.3795 30.383 43.8012 16.7935H38.4613ZM36.1993 25.2402C37.0664 25.2402 37.9335 25.2398 38.8007 25.24C38.9267 28.3751 39.0525 31.5104 39.1786 34.6454H35.8214C35.9478 31.5105 36.0735 28.3753 36.1993 25.2402ZM35.2402 49.1149C35.366 45.9799 35.4921 42.8448 35.6181 39.7099L39.3819 39.7096C39.508 42.8446 39.634 45.9799 39.7598 49.1149H35.2402ZM47.3014 16.7935H45.4835C50.0176 30.3829 54.5508 43.9723 59.0852 57.5618H64C58.434 43.9721 52.8677 30.3829 47.3014 16.7935ZM27.6986 16.7935C22.1323 30.383 16.5659 43.9721 11 57.5618H15.915C20.4488 43.9723 24.9825 30.383 29.5165 16.7935H27.6986Z" fill="#F15C54"/>
</svg>
