<svg width="75" height="75" viewBox="0 0 75 75" fill="none" xmlns="http://www.w3.org/2000/svg">
<path d="M37.5 75C58.2107 75 75 58.2107 75 37.5C75 16.7893 58.2107 0 37.5 0C16.7893 0 0 16.7893 0 37.5C0 58.2107 16.7893 75 37.5 75Z" fill="#DBDBDB"/>
<path fill-rule="evenodd" clip-rule="evenodd" d="M43.3312 54.6667L42.5103 47.1067L42.9823 48.1617C44.2599 51.015 46.8792 51.345 48.8311 48.8917L56.9385 38.6917C57.5116 37.9733 57.697 36.6983 57.3481 35.85L56.9385 34.8467L63.7026 27.13C63.7749 27.0475 63.8301 26.9517 63.8648 26.8481C63.8996 26.7444 63.9133 26.635 63.9052 26.5261C63.897 26.4173 63.8672 26.311 63.8174 26.2136C63.7676 26.1161 63.6987 26.0294 63.6149 25.9583C63.4467 25.8156 63.2286 25.7438 63.0075 25.7581C62.7863 25.7724 62.5796 25.8718 62.4317 26.035L55.7064 33.7083L54.3276 33.515C53.4006 33.3867 52.1954 33.8767 51.6173 34.6083L47.1 40.325L44.8178 34.4533C44.152 32.7383 42.0991 31.3333 40.2416 31.3333H25.2757C23.4351 31.3333 21.3687 32.7233 20.7029 34.4367L15.0091 49.1033C14.6754 49.965 14.8794 51.2267 15.4609 51.9367L15.8047 52.355C16.3845 53.0633 17.5964 53.525 18.51 53.3817L19.0494 53.2983C19.9596 53.155 20.9726 52.34 21.308 51.48L23.0053 47.1067L22.1845 54.6667H43.3312ZM44.8768 56.3333H47.0764C47.5467 56.3333 47.9276 56.6933 47.9276 57.1583V58.8417C47.9254 59.0612 47.8356 59.2711 47.6778 59.4255C47.52 59.58 47.3069 59.6667 47.0849 59.6667H18.4308C18.3204 59.668 18.2109 59.6476 18.1086 59.6067C18.0063 59.5658 17.9133 59.5053 17.8349 59.4285C17.7564 59.3517 17.6942 59.2603 17.6519 59.1596C17.6095 59.0588 17.5878 58.9508 17.588 58.8417V57.1583C17.588 56.7033 17.9639 56.3333 18.4392 56.3333H21.4816H44.8768ZM32.7578 28.8333C34.546 28.8333 36.2608 28.131 37.5252 26.8807C38.7896 25.6305 39.5 23.9348 39.5 22.1667C39.5 20.3986 38.7896 18.7029 37.5252 17.4526C36.2608 16.2024 34.546 15.5 32.7578 15.5C30.9697 15.5 29.2548 16.2024 27.9904 17.4526C26.726 18.7029 26.0157 20.3986 26.0157 22.1667C26.0157 23.9348 26.726 25.6305 27.9904 26.8807C29.2548 28.131 30.9697 28.8333 32.7578 28.8333Z" fill="#F15C54"/>
</svg>
