<svg width="75" height="75" viewBox="0 0 75 75" fill="none" xmlns="http://www.w3.org/2000/svg">
<path d="M37.5 75C58.2107 75 75 58.2107 75 37.5C75 16.7893 58.2107 0 37.5 0C16.7893 0 0 16.7893 0 37.5C0 58.2107 16.7893 75 37.5 75Z" fill="#DBDBDB"/>
<path fill-rule="evenodd" clip-rule="evenodd" d="M17.4292 38C17.4068 32.6846 19.4998 27.578 23.248 23.8036C26.9961 20.0292 32.0923 17.8962 37.4153 17.8738C42.7384 17.8514 47.8524 19.9414 51.6323 23.6841C55.4122 27.4268 57.5483 32.5156 57.5707 37.831C57.5726 38.0444 57.6165 38.2553 57.7 38.4518C57.7835 38.6482 57.9049 38.8263 58.0573 38.9759C58.2098 39.1255 58.3902 39.2436 58.5883 39.3236C58.7865 39.4035 58.9985 39.4437 59.2122 39.4419C59.4259 39.44 59.6371 39.3962 59.8339 39.3128C60.0306 39.2294 60.209 39.1082 60.3588 38.956C60.5086 38.8038 60.6269 38.6236 60.707 38.4257C60.787 38.2279 60.8273 38.0162 60.8254 37.8028C60.717 25.0303 50.317 14.7083 37.5 14.7083C24.6178 14.7083 14.1745 25.1365 14.1745 38C14.1745 50.7985 24.5115 61.1833 37.3047 61.2916C37.7363 61.2951 38.1516 61.1272 38.4592 60.8249C38.7668 60.5226 38.9416 60.1106 38.9451 59.6796C38.9485 59.2487 38.7804 58.834 38.4776 58.5268C38.1749 58.2196 37.7623 58.0451 37.3307 58.0416C32.037 57.9971 26.9753 55.8659 23.2478 52.1122C19.5204 48.3584 17.429 43.2862 17.4292 38ZM37.5 28.7916C35.3586 28.7909 33.2836 29.5343 31.6312 30.8943C29.9787 32.2544 28.8518 34.1463 28.4438 36.2455C28.0358 38.3446 28.3721 40.5201 29.395 42.3987C30.418 44.2773 32.0637 45.7418 34.05 46.541C34.4502 46.7027 34.7697 47.0166 34.9382 47.4136C35.1066 47.8106 35.1103 48.2582 34.9483 48.6578C34.7863 49.0575 34.4719 49.3765 34.0744 49.5447C33.6768 49.7129 33.2286 49.7166 32.8284 49.5548C30.1458 48.4694 27.9244 46.4867 26.5444 43.9461C25.1644 41.4055 24.7116 38.4649 25.2636 35.6277C25.8155 32.7905 27.3379 30.2331 29.5701 28.3931C31.8023 26.5532 34.6055 25.5452 37.5 25.5416C39.9869 25.5417 42.417 26.2836 44.4788 27.6722C46.5405 29.0607 48.1399 31.0327 49.0716 33.3351C49.1593 33.5343 49.2061 33.7489 49.2092 33.9664C49.2123 34.184 49.1716 34.3999 49.0896 34.6014C49.0076 34.8029 48.8858 34.9859 48.7317 35.1396C48.5775 35.2933 48.394 35.4145 48.192 35.496C47.99 35.5776 47.7737 35.6178 47.5559 35.6143C47.3381 35.6108 47.1232 35.5637 46.9239 35.4757C46.7247 35.3878 46.5452 35.2608 46.396 35.1022C46.2468 34.9437 46.1311 34.7569 46.0555 34.5528C45.3667 32.8506 44.1842 31.3926 42.6598 30.3661C41.1354 29.3396 39.3386 28.7913 37.5 28.7916ZM43.2934 58.0655L37.6237 41.0853C37.4856 40.673 37.4653 40.2303 37.565 39.8071C37.6648 39.3839 37.8807 38.9968 38.1885 38.6892C38.4962 38.3817 38.8837 38.1658 39.3075 38.0659C39.7313 37.9659 40.1746 37.9859 40.5876 38.1235L57.5946 43.785C59.7319 44.4956 59.7319 47.5138 57.5946 48.2266L51.3152 50.3153C50.9701 50.4302 50.6565 50.6237 50.3993 50.8806C50.142 51.1374 49.9482 51.4505 49.8332 51.7951L47.7393 58.0655C47.0276 60.1996 44.0072 60.1996 43.2912 58.0655H43.2934Z" fill="#F15C54"/>
</svg>
