<svg width="49" height="51" viewBox="0 0 49 51" fill="none" xmlns="http://www.w3.org/2000/svg">
<g filter="url(#filter0_d_724_362)">
<path d="M5.0177 35.0979L5.96902 24.8105L5.92477 13.3461L7.00882 13.9744L7.03536 24.784L7.94687 35.1732L5.0177 35.0979Z" fill="#536CB3"/>
<path d="M4.00012 13.3461C11.2832 9.07627 18.5618 4.80643 25.8449 0.536591C32.1368 5.84181 38.4288 11.1426 44.7207 16.4478L35.5527 21.0318C33.4421 16.5186 29.0351 13.5098 24.0927 13.2089C18.9999 12.8992 14.1371 15.5142 11.5531 19.9522C9.03544 17.7487 6.51778 15.5496 4.00012 13.3461Z" fill="#536CB3"/>
<path d="M30.035 36.3059L36.4995 34.3236L36.119 41.6022L34.5836 40.4783L34.7075 36.5448L31.3049 37.5226L30.035 36.3059Z" fill="#F15C54"/>
<path d="M14.2388 24.8193C14.2388 24.8193 14.0441 28.0715 13.9954 29.775C13.9158 32.5891 13.991 32.0316 13.9335 32.859C13.8892 33.4917 13.9556 34.1289 13.9512 34.7616C13.9512 34.8413 13.9512 35.0227 14.0131 35.2528C14.0485 35.3811 14.1414 35.7129 14.4335 36.0094C14.7786 36.3545 15.1857 36.4386 15.3361 36.4607C15.3715 36.4297 15.4069 36.4032 15.4379 36.3722C15.6149 31.8192 15.7874 27.014 15.7299 27.014C15.7299 27.014 15.7299 27.014 15.7299 27.0184C15.6414 27.275 19.2254 30.1245 19.2299 30.129C19.1945 32.5404 19.1635 34.9475 19.1281 37.3589C19.1369 37.5182 19.1679 37.7129 19.2608 37.9209C19.5794 38.6244 20.3405 38.8368 20.4776 38.8722C20.544 38.8545 20.6148 38.8368 20.6812 38.8235L20.8714 33.7926C20.8714 33.7926 20.8758 33.7926 20.8803 33.7926L24.19 36.5979C24.1944 36.8855 24.2077 37.3191 24.2121 37.8501C24.2386 39.5713 24.2386 39.6642 24.3138 39.7925C24.8625 40.7173 27.6103 40.2483 29.4952 39.5447C30.65 39.1155 32.5792 38.1863 34.4862 36.089C34.7871 36.4253 35.088 36.7616 35.3889 37.0934C33.296 39.5226 31.0836 40.6952 29.8182 41.2438C24.0572 43.7526 18.4865 41.7792 16.491 40.7394C15.2565 40.0978 14.199 39.2527 14.199 39.2527C13.553 38.735 12.4601 37.8501 11.4999 36.3766C10.4114 34.7041 10.0574 33.1422 9.79197 31.9829C9.51763 30.7794 9.4203 29.6865 9.3849 29.2219C9.34065 28.6644 9.27428 27.8237 9.33622 26.7219C9.37604 26.0361 9.43799 25.0184 9.78312 23.7441C9.96011 23.0848 10.2389 22.2751 10.6813 21.3902C11.8627 22.5317 13.0485 23.6733 14.2299 24.8149L14.2388 24.8193Z" fill="#F15C54"/>
</g>
<defs>
<filter id="filter0_d_724_362" x="0.00012207" y="0.536591" width="48.7206" height="49.9268" filterUnits="userSpaceOnUse" color-interpolation-filters="sRGB">
<feFlood flood-opacity="0" result="BackgroundImageFix"/>
<feColorMatrix in="SourceAlpha" type="matrix" values="0 0 0 0 0 0 0 0 0 0 0 0 0 0 0 0 0 0 127 0" result="hardAlpha"/>
<feOffset dy="4"/>
<feGaussianBlur stdDeviation="2"/>
<feComposite in2="hardAlpha" operator="out"/>
<feColorMatrix type="matrix" values="0 0 0 0 0 0 0 0 0 0 0 0 0 0 0 0 0 0 0.25 0"/>
<feBlend mode="normal" in2="BackgroundImageFix" result="effect1_dropShadow_724_362"/>
<feBlend mode="normal" in="SourceGraphic" in2="effect1_dropShadow_724_362" result="shape"/>
</filter>
</defs>
</svg>
